<?xml version="1.0" standalone="no"?>
<!DOCTYPE svg PUBLIC "-//W3C//DTD SVG 20010904//EN"
 "http://www.w3.org/TR/2001/REC-SVG-20010904/DTD/svg10.dtd">
<svg version="1.0" xmlns="http://www.w3.org/2000/svg"
 width="1200.000000pt" height="1200.000000pt" viewBox="0 0 1200.000000 1200.000000"
 preserveAspectRatio="xMidYMid meet">
<metadata>
Created by potrace 1.14, written by Peter Selinger 2001-2017
</metadata>
<g transform="translate(0.000000,1200.000000) scale(0.100000,-0.100000)"
fill="#000000" stroke="none">
<path d="M5749 11096 c-2 -2 -56 -7 -119 -10 -63 -4 -124 -9 -135 -11 -11 -2
-46 -6 -78 -9 -32 -3 -86 -10 -120 -15 -34 -6 -82 -13 -107 -16 -25 -4 -67
-11 -95 -16 -27 -6 -59 -12 -70 -13 -39 -6 -358 -80 -393 -91 -7 -3 -14 -5
-17 -5 -3 0 -23 -7 -45 -15 -22 -8 -41 -14 -43 -13 -7 4 -283 -93 -412 -144
-216 -87 -459 -203 -639 -307 -49 -28 -93 -51 -97 -51 -5 0 -9 -4 -9 -9 0 -5
-8 -11 -17 -15 -10 -3 -31 -15 -48 -26 -16 -11 -37 -23 -45 -27 -8 -3 -17 -9
-20 -12 -3 -3 -52 -37 -109 -76 -58 -38 -119 -81 -137 -95 -17 -14 -42 -32
-54 -40 -12 -8 -28 -20 -34 -25 -6 -6 -27 -22 -46 -35 -19 -14 -45 -35 -56
-47 -12 -13 -26 -23 -32 -23 -6 0 -12 -3 -14 -7 -1 -5 -21 -23 -43 -42 -113
-96 -183 -161 -337 -313 -93 -93 -166 -168 -164 -168 3 0 -7 -13 -22 -28 -26
-27 -64 -72 -147 -172 -20 -25 -41 -46 -46 -48 -5 -2 -9 -8 -9 -14 0 -6 -12
-25 -28 -43 -15 -18 -49 -64 -77 -102 -27 -37 -53 -69 -57 -71 -5 -2 -8 -10
-8 -18 0 -8 -4 -14 -10 -14 -5 0 -10 -6 -10 -13 0 -7 -11 -24 -25 -39 -14 -15
-25 -31 -25 -36 0 -4 -7 -17 -15 -27 -9 -11 -45 -67 -80 -125 -35 -58 -69
-110 -74 -117 -6 -6 -13 -23 -17 -37 -3 -14 -10 -26 -14 -26 -4 0 -10 -8 -14
-17 -3 -10 -28 -60 -55 -110 -28 -51 -47 -93 -43 -93 4 0 2 -4 -4 -8 -14 -9
-104 -201 -104 -221 0 -6 -4 -11 -10 -11 -5 0 -10 -6 -10 -13 0 -7 -20 -60
-44 -119 -24 -59 -41 -109 -38 -112 3 -3 -1 -6 -8 -6 -7 0 -11 -3 -7 -6 3 -3
-6 -36 -20 -72 -14 -37 -27 -74 -29 -82 -5 -19 -44 -140 -51 -160 -9 -22 -9
-21 -18 -65 -4 -22 -10 -44 -14 -50 -3 -5 -6 -14 -8 -20 -1 -5 -9 -37 -18 -70
-8 -33 -17 -73 -20 -89 -2 -16 -8 -32 -12 -35 -5 -3 -8 -19 -9 -36 -1 -28 -10
-80 -14 -80 -1 0 -3 -11 -5 -25 -1 -14 -6 -38 -9 -55 -4 -16 -9 -48 -12 -70
-3 -22 -8 -47 -11 -55 -2 -8 -7 -35 -9 -60 -2 -25 -6 -55 -8 -68 -3 -13 -8
-53 -12 -90 -3 -37 -8 -80 -10 -97 -15 -139 -19 -239 -19 -495 0 -265 6 -428
19 -500 4 -22 9 -67 21 -190 3 -33 7 -57 20 -120 2 -13 7 -42 10 -65 10 -70
17 -104 31 -158 3 -12 7 -31 8 -42 1 -11 6 -33 9 -50 4 -16 9 -39 12 -50 2
-11 11 -45 20 -75 9 -30 18 -66 20 -80 2 -14 13 -51 24 -82 11 -32 17 -58 13
-58 -3 0 -1 -5 6 -12 7 -7 12 -22 12 -34 0 -13 4 -26 10 -29 5 -3 10 -16 10
-29 0 -12 3 -26 7 -30 7 -7 12 -27 16 -63 1 -11 5 -19 10 -16 4 2 7 -4 7 -14
0 -11 5 -24 12 -31 7 -7 9 -12 5 -12 -4 0 -1 -13 7 -29 9 -16 12 -31 9 -35 -4
-3 -1 -6 6 -6 7 0 9 -4 6 -10 -3 -5 -1 -10 5 -10 6 0 9 -4 6 -8 -2 -4 1 -21 9
-37 7 -17 21 -48 31 -70 9 -22 17 -46 17 -52 0 -7 4 -13 9 -13 5 0 6 -5 3 -10
-3 -6 -2 -10 3 -10 5 0 9 -6 9 -12 0 -7 19 -51 42 -98 22 -47 41 -90 41 -97 0
-6 3 -13 8 -15 11 -5 63 -108 55 -108 -5 0 -3 -4 3 -8 6 -4 28 -41 50 -82 21
-41 42 -77 47 -78 4 -2 5 -8 1 -13 -3 -5 0 -9 5 -9 6 0 11 -5 11 -12 0 -6 11
-26 25 -43 13 -18 21 -35 18 -39 -4 -3 -1 -6 5 -6 7 0 12 -6 12 -12 0 -7 11
-26 25 -42 13 -16 22 -33 19 -37 -3 -5 -1 -9 3 -9 11 0 44 -55 38 -64 -3 -3
-2 -4 2 -1 7 6 53 -59 53 -75 0 -6 4 -9 8 -6 4 2 13 -8 20 -23 7 -15 21 -37
32 -49 11 -12 20 -24 20 -27 0 -4 7 -13 15 -22 8 -8 12 -19 9 -25 -4 -7 -2 -8
4 -4 7 4 12 1 12 -9 0 -9 4 -13 10 -10 5 3 10 1 10 -5 0 -6 6 -17 13 -24 6 -7
23 -28 37 -46 14 -18 31 -39 38 -47 7 -7 11 -13 7 -13 -3 0 8 -14 25 -30 17
-17 28 -35 24 -42 -4 -6 -3 -8 3 -5 9 6 53 -35 53 -48 0 -3 18 -23 40 -45 22
-22 40 -41 40 -43 0 -2 29 -34 65 -71 36 -38 62 -73 58 -79 -3 -5 -1 -7 5 -3
14 8 44 -22 36 -36 -4 -6 -3 -9 2 -5 13 8 47 -20 39 -33 -3 -6 -2 -9 4 -8 9 3
102 -79 233 -203 26 -25 50 -43 53 -41 3 3 5 0 5 -6 0 -7 6 -12 13 -12 6 -1
30 -19 52 -40 22 -22 43 -40 47 -40 12 0 53 -44 50 -53 -1 -5 2 -6 7 -3 5 4
16 -1 24 -9 9 -8 21 -15 27 -15 7 0 10 -7 7 -14 -4 -9 -1 -13 6 -10 7 2 22 -5
34 -16 12 -11 26 -20 31 -20 14 0 43 -36 35 -44 -4 -4 0 -4 10 0 10 3 17 1 17
-5 0 -6 3 -10 8 -9 8 3 185 -113 190 -124 2 -5 10 -8 18 -8 8 0 17 -7 20 -15
4 -8 10 -13 14 -10 5 3 16 -2 24 -11 9 -8 16 -13 16 -9 0 3 15 -5 33 -18 17
-13 49 -32 71 -43 21 -10 40 -24 43 -31 3 -6 11 -9 19 -6 8 3 14 0 14 -7 0 -6
5 -8 10 -5 6 3 10 1 10 -4 0 -6 3 -10 8 -9 12 3 62 -25 62 -34 0 -5 4 -7 9 -3
5 3 16 -1 24 -9 8 -8 17 -12 21 -9 3 4 6 -2 7 -13 0 -10 3 -14 6 -7 3 10 9 10
26 0 12 -7 25 -16 28 -20 3 -5 10 -8 15 -8 18 1 44 -11 44 -20 0 -6 5 -7 10
-4 5 3 10 2 10 -3 0 -5 6 -9 13 -9 10 -1 143 -56 227 -95 14 -6 27 -12 30 -13
22 -5 130 -49 149 -62 15 -9 21 -10 16 -2 -6 8 -4 10 5 4 25 -15 229 -83 234
-77 4 3 6 0 6 -7 0 -7 6 -11 14 -8 7 3 25 -1 40 -8 14 -8 40 -15 58 -17 18 -2
32 -8 31 -14 -1 -6 10 -9 29 -6 23 4 29 2 23 -8 -5 -8 -4 -11 3 -6 6 3 32 1
59 -5 26 -6 53 -12 59 -13 7 -1 20 -8 30 -16 11 -9 15 -10 10 -2 -7 12 6 17
17 5 4 -3 19 -8 34 -9 54 -6 93 -15 93 -22 0 -4 12 -7 28 -6 15 1 31 -1 37 -4
5 -3 23 -7 40 -8 16 -1 32 -2 35 -4 3 -1 16 -1 29 0 13 1 21 -2 18 -7 -3 -4 7
-8 21 -9 15 0 54 -4 87 -8 33 -4 80 -9 105 -12 68 -8 74 -9 89 -18 10 -7 12
-5 6 3 -5 10 -3 11 11 4 11 -4 39 -8 64 -8 27 0 50 -6 58 -15 8 -8 11 -9 7 -2
-6 11 14 12 102 8 59 -3 118 -7 131 -10 12 -3 22 0 22 5 0 6 5 7 12 3 12 -8
256 -6 270 2 4 3 8 0 8 -6 0 -6 5 -8 13 -3 6 4 45 8 86 10 40 1 76 4 79 7 3 3
12 0 20 -7 11 -8 14 -8 9 0 -5 8 6 11 38 10 24 0 48 2 51 6 4 4 16 -1 26 -10
14 -13 19 -14 16 -3 -3 15 22 21 104 23 25 1 44 6 41 11 -3 5 0 6 8 4 8 -3 26
-2 40 3 17 4 32 3 39 -4 9 -9 11 -9 7 -1 -4 7 3 14 18 16 16 4 22 1 18 -6 -4
-6 0 -5 9 2 9 7 20 12 24 11 5 -1 11 0 14 1 3 1 16 3 30 5 14 1 39 6 55 10 17
4 39 8 51 9 11 1 26 6 34 11 9 6 11 4 5 -6 -8 -12 -6 -12 8 0 9 7 17 10 17 6
0 -4 7 -1 17 6 9 8 18 13 20 11 2 -2 29 2 61 9 31 7 62 13 68 15 6 1 37 9 67
18 31 9 60 16 64 15 4 -1 21 3 37 10 16 6 36 9 43 7 8 -3 11 -1 8 4 -3 6 3 11
14 12 12 0 27 1 34 2 6 1 14 4 17 8 6 7 52 19 82 21 9 1 14 5 12 9 -3 4 2 9
10 9 20 2 25 3 60 18 16 6 36 13 45 15 9 1 33 10 55 19 21 9 42 17 47 17 5 0
17 4 27 9 53 27 71 33 83 26 7 -5 10 -4 6 1 -3 5 27 23 66 39 40 16 90 38 113
50 22 12 50 21 62 20 11 -1 20 3 19 9 -1 6 4 10 11 8 6 -1 12 2 12 8 0 5 9 10
20 10 11 0 20 5 20 11 0 5 5 7 10 4 6 -3 10 -1 10 5 0 6 4 9 9 6 4 -3 19 3 31
14 27 23 34 25 25 8 -4 -7 -1 -6 7 3 7 8 27 22 43 31 53 27 139 74 177 97 21
13 42 20 48 16 6 -4 9 -2 8 3 -4 15 100 82 106 68 2 -6 5 -3 5 8 1 13 6 16 18
12 10 -4 14 -4 10 0 -7 7 84 74 102 74 5 0 11 7 15 15 3 8 9 14 13 13 5 -2 15
3 23 9 53 45 79 63 89 63 6 0 11 3 11 8 1 4 24 23 52 42 28 19 58 43 66 53 9
9 20 17 24 17 4 0 24 15 44 34 21 19 42 33 46 30 4 -3 8 2 8 10 0 8 9 17 19
21 11 3 22 12 25 20 3 8 13 15 21 15 9 0 14 4 11 9 -7 11 22 23 35 16 5 -4 6
0 3 8 -3 8 5 21 18 29 13 9 70 61 127 116 57 56 108 99 114 95 5 -3 8 0 5 7
-2 7 39 56 90 109 52 53 101 106 110 119 12 18 17 20 24 10 7 -10 8 -9 4 4 -6
19 57 91 70 80 4 -4 4 -1 -1 7 -4 7 -3 16 2 20 5 3 31 33 58 66 27 33 53 59
58 57 4 -1 6 2 3 6 -5 8 3 20 44 69 5 7 10 17 10 23 0 5 4 10 8 10 4 0 16 13
25 30 10 16 23 35 30 43 7 7 17 20 22 29 6 9 25 37 43 62 17 26 32 51 32 56 0
4 4 10 8 12 4 2 26 32 47 68 21 36 42 67 46 70 3 3 9 15 13 28 5 13 12 20 19
16 7 -4 9 -4 5 0 -7 8 59 136 76 148 7 5 7 8 1 8 -5 0 -2 7 8 14 10 8 18 17
18 20 -3 21 0 26 11 20 7 -4 8 -3 4 4 -4 6 13 49 38 95 24 46 59 119 79 163
62 141 78 178 95 214 8 19 16 37 17 40 5 25 30 88 39 99 6 8 10 17 9 20 -2 3
7 35 19 71 12 36 21 68 20 73 -1 4 3 7 10 7 6 0 9 3 5 6 -3 3 5 36 18 73 12
36 26 80 30 96 5 17 10 36 12 43 1 6 4 18 6 25 1 6 5 17 8 22 4 6 15 46 25 90
10 44 18 82 19 85 1 3 5 25 10 50 10 53 12 59 15 63 1 1 3 9 5 17 19 99 25
132 31 170 3 25 11 48 17 52 9 6 8 8 -1 8 -7 0 -10 5 -7 10 9 14 17 73 31 215
3 28 7 61 9 75 27 149 26 845 0 1025 -3 17 -7 50 -9 75 -8 74 -17 143 -22 170
-2 14 -7 40 -9 59 -7 50 -15 90 -25 136 -5 22 -11 54 -14 70 -3 17 -8 39 -11
50 -2 11 -11 49 -19 85 -8 36 -20 86 -27 110 -7 25 -14 54 -16 65 -2 11 -6 27
-10 35 -3 8 -8 24 -10 35 -8 37 -11 50 -13 53 -2 1 -3 6 -4 11 0 5 -4 13 -8
17 -5 4 -8 16 -8 26 0 10 -4 26 -9 36 -5 9 -16 42 -26 72 -9 30 -29 87 -43
125 -15 39 -27 72 -28 75 -1 6 -10 28 -45 114 -16 37 -29 74 -29 82 0 8 -4 14
-8 14 -4 0 -14 17 -21 38 -22 61 -208 432 -222 442 -5 3 -14 19 -21 35 -22 49
-164 276 -192 308 -9 9 -16 20 -16 24 0 3 -11 21 -26 40 -14 18 -22 38 -18 45
4 6 3 8 -4 4 -6 -4 -25 14 -43 41 -18 27 -35 50 -39 53 -3 3 -17 21 -30 40
-28 40 -43 58 -87 109 -18 20 -33 39 -33 43 0 3 -15 22 -32 40 -18 19 -58 63
-88 98 -70 81 -316 328 -398 400 -35 30 -73 64 -85 76 -12 11 -58 50 -102 85
-44 35 -85 69 -91 74 -6 6 -22 17 -34 25 -13 8 -31 22 -40 30 -9 8 -24 20 -32
25 -9 6 -72 49 -141 98 -69 48 -130 87 -135 87 -6 0 -12 3 -14 8 -3 8 -135 92
-145 92 -2 0 -17 8 -31 19 -98 67 -434 232 -662 323 -107 43 -352 130 -400
143 -8 3 -49 14 -90 26 -153 43 -187 52 -295 75 -60 14 -119 26 -130 29 -17 3
-86 15 -236 40 -62 11 -134 19 -259 31 -41 3 -84 8 -95 11 -24 5 -640 14 -646
9z"/>
<path d="M11146 5642 c-3 -5 1 -9 9 -9 8 0 12 4 9 9 -3 4 -7 8 -9 8 -2 0 -6
-4 -9 -8z"/>
<path d="M1113 4425 c0 -8 4 -12 9 -9 5 3 6 10 3 15 -9 13 -12 11 -12 -6z"/>
<path d="M10646 3682 c-3 -5 1 -9 9 -9 8 0 15 4 15 9 0 4 -4 8 -9 8 -6 0 -12
-4 -15 -8z"/>
<path d="M1555 3400 c-3 -5 -1 -10 4 -10 6 0 11 5 11 10 0 6 -2 10 -4 10 -3 0
-8 -4 -11 -10z"/>
<path d="M10426 3402 c-3 -5 1 -9 9 -9 8 0 12 4 9 9 -3 4 -7 8 -9 8 -2 0 -6
-4 -9 -8z"/>
<path d="M1313 3325 c0 -8 4 -12 9 -9 5 3 6 10 3 15 -9 13 -12 11 -12 -6z"/>
<path d="M10295 3040 c-3 -5 -1 -10 4 -10 6 0 11 5 11 10 0 6 -2 10 -4 10 -3
0 -8 -4 -11 -10z"/>
<path d="M2035 2600 c3 -5 8 -10 11 -10 2 0 4 5 4 10 0 6 -5 10 -11 10 -5 0
-7 -4 -4 -10z"/>
<path d="M2235 2511 c-3 -5 -2 -12 3 -15 5 -3 9 1 9 9 0 17 -3 19 -12 6z"/>
<path d="M2076 2478 c3 -5 10 -6 15 -3 13 9 11 12 -6 12 -8 0 -12 -4 -9 -9z"/>
<path d="M9590 2146 c0 -2 7 -7 16 -10 8 -3 12 -2 9 4 -6 10 -25 14 -25 6z"/>
<path d="M9470 2039 c0 -5 5 -7 10 -4 6 3 10 8 10 11 0 2 -4 4 -10 4 -5 0 -10
-5 -10 -11z"/>
<path d="M2676 1922 c-3 -5 1 -9 9 -9 8 0 12 4 9 9 -3 4 -7 8 -9 8 -2 0 -6 -4
-9 -8z"/>
<path d="M9193 1845 c0 -8 4 -12 9 -9 5 3 6 10 3 15 -9 13 -12 11 -12 -6z"/>
<path d="M2940 1846 c0 -2 8 -10 18 -17 15 -13 16 -12 3 4 -13 16 -21 21 -21
13z"/>
<path d="M9225 1800 c-3 -6 1 -7 9 -4 18 7 21 14 7 14 -6 0 -13 -4 -16 -10z"/>
<path d="M9255 1761 c-3 -5 -2 -12 3 -15 5 -3 9 1 9 9 0 17 -3 19 -12 6z"/>
<path d="M3039 1673 c-13 -16 -12 -17 4 -4 9 7 17 15 17 17 0 8 -8 3 -21 -13z"/>
<path d="M9315 1569 c-4 -6 -5 -12 -2 -15 2 -3 7 2 10 11 7 17 1 20 -8 4z"/>
<path d="M3025 1540 c-3 -6 1 -7 9 -4 18 7 21 14 7 14 -6 0 -13 -4 -16 -10z"/>
<path d="M3180 1526 c0 -2 8 -10 18 -17 15 -13 16 -12 3 4 -13 16 -21 21 -21
13z"/>
<path d="M8953 1485 c0 -8 4 -12 9 -9 5 3 6 10 3 15 -9 13 -12 11 -12 -6z"/>
<path d="M3150 1479 c0 -5 5 -7 10 -4 6 3 10 8 10 11 0 2 -4 4 -10 4 -5 0 -10
-5 -10 -11z"/>
<path d="M8830 1480 c0 -5 5 -10 11 -10 5 0 7 5 4 10 -3 6 -8 10 -11 10 -2 0
-4 -4 -4 -10z"/>
<path d="M3830 1319 c0 -5 5 -7 10 -4 6 3 10 8 10 11 0 2 -4 4 -10 4 -5 0 -10
-5 -10 -11z"/>
<path d="M4195 1171 c-3 -5 -2 -12 3 -15 5 -3 9 1 9 9 0 17 -3 19 -12 6z"/>
<path d="M3750 1160 c0 -5 5 -10 11 -10 5 0 7 5 4 10 -3 6 -8 10 -11 10 -2 0
-4 -4 -4 -10z"/>
<path d="M4275 1160 c3 -5 8 -10 11 -10 2 0 4 5 4 10 0 6 -5 10 -11 10 -5 0
-7 -4 -4 -10z"/>
<path d="M4355 1080 c-3 -5 -1 -10 4 -10 6 0 11 5 11 10 0 6 -2 10 -4 10 -3 0
-8 -4 -11 -10z"/>
<path d="M7470 1079 c0 -5 5 -7 10 -4 6 3 10 8 10 11 0 2 -4 4 -10 4 -5 0 -10
-5 -10 -11z"/>
<path d="M3425 1040 c-3 -6 1 -7 9 -4 18 7 21 14 7 14 -6 0 -13 -4 -16 -10z"/>
<path d="M7306 1002 c-3 -5 1 -9 9 -9 8 0 12 4 9 9 -3 4 -7 8 -9 8 -2 0 -6 -4
-9 -8z"/>
<path d="M4510 966 c0 -2 7 -7 16 -10 8 -3 12 -2 9 4 -6 10 -25 14 -25 6z"/>
<path d="M8353 925 c0 -8 4 -12 9 -9 5 3 6 10 3 15 -9 13 -12 11 -12 -6z"/>
<path d="M3635 920 c3 -5 8 -10 11 -10 2 0 4 5 4 10 0 6 -5 10 -11 10 -5 0 -7
-4 -4 -10z"/>
<path d="M6890 926 c0 -2 7 -7 16 -10 8 -3 12 -2 9 4 -6 10 -25 14 -25 6z"/>
<path d="M5725 880 c-3 -6 1 -7 9 -4 18 7 21 14 7 14 -6 0 -13 -4 -16 -10z"/>
<path d="M5833 875 c0 -8 4 -12 9 -9 5 3 6 10 3 15 -9 13 -12 11 -12 -6z"/>
<path d="M6060 886 c0 -2 8 -10 18 -17 15 -13 16 -12 3 4 -13 16 -21 21 -21
13z"/>
<path d="M6290 880 c0 -5 5 -10 11 -10 5 0 7 5 4 10 -3 6 -8 10 -11 10 -2 0
-4 -4 -4 -10z"/>
<path d="M6196 853 c-6 -14 -5 -15 5 -6 7 7 10 15 7 18 -3 3 -9 -2 -12 -12z"/>
<path d="M6636 842 c-3 -5 1 -9 9 -9 8 0 12 4 9 9 -3 4 -7 8 -9 8 -2 0 -6 -4
-9 -8z"/>
<path d="M4590 816 c0 -2 8 -10 18 -17 15 -13 16 -12 3 4 -13 16 -21 21 -21
13z"/>
<path d="M4630 746 c0 -2 7 -7 16 -10 8 -3 12 -2 9 4 -6 10 -25 14 -25 6z"/>
<path d="M4993 445 c0 -8 4 -12 9 -9 5 3 6 10 3 15 -9 13 -12 11 -12 -6z"/>
<path d="M7070 440 c0 -5 5 -10 11 -10 5 0 7 5 4 10 -3 6 -8 10 -11 10 -2 0
-4 -4 -4 -10z"/>
</g>
</svg>
